<?xml version="1.0" encoding="UTF-8" standalone="no"?>
<!DOCTYPE svg PUBLIC "-//W3C//DTD SVG 1.1//EN"
 "http://www.w3.org/Graphics/SVG/1.1/DTD/svg11.dtd">
<!-- Generated by graphviz version 2.40.1 (20161225.0304)
 -->
<!-- Title: dependencies Pages: 1 -->
<svg width="1720pt" height="284pt"
 viewBox="0.00 0.00 1720.00 284.00" xmlns="http://www.w3.org/2000/svg" xmlns:xlink="http://www.w3.org/1999/xlink">
<g id="graph0" class="graph" transform="scale(1 1) rotate(0) translate(4 280)">
<title>dependencies</title>
<polygon fill="#ffffff" stroke="transparent" points="-4,4 -4,-280 1716,-280 1716,4 -4,4"/>
<text text-anchor="start" x="835.0091" y="-42.4" font-family="sans-serif" font-weight="bold" font-size="14.00" fill="#000000">Legend</text>
<polygon fill="#ffffb3" stroke="transparent" points="622,-10 622,-30 642,-30 642,-10 622,-10"/>
<text text-anchor="start" x="645.629" y="-15.4" font-family="sans-serif" font-size="14.00" fill="#000000"> &#160;Declarations</text>
<polygon fill="#8dd3c7" stroke="transparent" points="735,-10 735,-30 755,-30 755,-10 735,-10"/>
<text text-anchor="start" x="758.7251" y="-15.4" font-family="sans-serif" font-size="14.00" fill="#000000"> &#160;Module</text>
<polygon fill="#80b1d3" stroke="transparent" points="821,-10 821,-30 841,-30 841,-10 821,-10"/>
<text text-anchor="start" x="844.7812" y="-15.4" font-family="sans-serif" font-size="14.00" fill="#000000"> &#160;Bootstrap</text>
<polygon fill="#fdb462" stroke="transparent" points="918,-10 918,-30 938,-30 938,-10 918,-10"/>
<text text-anchor="start" x="941.6732" y="-15.4" font-family="sans-serif" font-size="14.00" fill="#000000"> &#160;Providers</text>
<polygon fill="#fb8072" stroke="transparent" points="1014,-10 1014,-30 1034,-30 1034,-10 1014,-10"/>
<text text-anchor="start" x="1037.7258" y="-15.4" font-family="sans-serif" font-size="14.00" fill="#000000"> &#160;Exports</text>
<g id="clust1" class="cluster">
<title>cluster_AppModule</title>
<polygon fill="none" stroke="#000000" stroke-dasharray="1,5" points="8,-70 8,-268 1704,-268 1704,-70 8,-70"/>
</g>
<g id="clust2" class="cluster">
<title>cluster_AppModule_declarations</title>
<polygon fill="none" stroke="#000000" points="866,-78 866,-130 1696,-130 1696,-78 866,-78"/>
</g>
<g id="clust13" class="cluster">
<title>cluster_AppModule_bootstrap</title>
<polygon fill="none" stroke="#000000" points="995,-208 995,-260 1083,-260 1083,-208 995,-208"/>
</g>
<g id="clust14" class="cluster">
<title>cluster_AppModule_providers</title>
<polygon fill="none" stroke="#000000" points="16,-78 16,-130 858,-130 858,-78 16,-78"/>
</g>
<!-- DeviceInfoPage -->
<g id="node1" class="node">
<title>DeviceInfoPage</title>
<polygon fill="#ffffb3" stroke="#000000" points="1688.1741,-122 1581.8259,-122 1581.8259,-86 1688.1741,-86 1688.1741,-122"/>
<text text-anchor="middle" x="1635" y="-99.8" font-family="Times,serif" font-size="14.00" fill="#000000">DeviceInfoPage</text>
</g>
<!-- AppModule -->
<g id="node9" class="node">
<title>AppModule</title>
<polygon fill="#8dd3c7" stroke="#000000" points="1080.6571,-187 1077.6571,-191 1056.6571,-191 1053.6571,-187 997.3429,-187 997.3429,-151 1080.6571,-151 1080.6571,-187"/>
<text text-anchor="middle" x="1039" y="-164.8" font-family="Times,serif" font-size="14.00" fill="#000000">AppModule</text>
</g>
<!-- DeviceInfoPage&#45;&gt;AppModule -->
<g id="edge1" class="edge">
<title>DeviceInfoPage&#45;&gt;AppModule</title>
<path fill="none" stroke="#000000" d="M1635,-122.2479C1635,-145.0179 1635,-181 1635,-181 1635,-181 1090.9096,-181 1090.9096,-181"/>
<polygon fill="#000000" stroke="#000000" points="1090.9096,-177.5001 1080.9096,-181 1090.9095,-184.5001 1090.9096,-177.5001"/>
</g>
<!-- EventDatePage -->
<g id="node2" class="node">
<title>EventDatePage</title>
<polygon fill="#ffffb3" stroke="#000000" points="1564.2964,-122 1461.7036,-122 1461.7036,-86 1564.2964,-86 1564.2964,-122"/>
<text text-anchor="middle" x="1513" y="-99.8" font-family="Times,serif" font-size="14.00" fill="#000000">EventDatePage</text>
</g>
<!-- EventDatePage&#45;&gt;AppModule -->
<g id="edge2" class="edge">
<title>EventDatePage&#45;&gt;AppModule</title>
<path fill="none" stroke="#000000" d="M1513,-122.2843C1513,-143.3211 1513,-175 1513,-175 1513,-175 1091.0643,-175 1091.0643,-175"/>
<polygon fill="#000000" stroke="#000000" points="1091.0644,-171.5001 1081.0643,-175 1091.0643,-178.5001 1091.0644,-171.5001"/>
</g>
<!-- EventInfoPage -->
<g id="node3" class="node">
<title>EventInfoPage</title>
<polygon fill="#ffffb3" stroke="#000000" points="1443.691,-122 1344.309,-122 1344.309,-86 1443.691,-86 1443.691,-122"/>
<text text-anchor="middle" x="1394" y="-99.8" font-family="Times,serif" font-size="14.00" fill="#000000">EventInfoPage</text>
</g>
<!-- EventInfoPage&#45;&gt;AppModule -->
<g id="edge3" class="edge">
<title>EventInfoPage&#45;&gt;AppModule</title>
<path fill="none" stroke="#000000" d="M1394,-122.1061C1394,-141.3391 1394,-169 1394,-169 1394,-169 1090.7669,-169 1090.7669,-169"/>
<polygon fill="#000000" stroke="#000000" points="1090.767,-165.5001 1080.7669,-169 1090.7669,-172.5001 1090.767,-165.5001"/>
</g>
<!-- EventsPage -->
<g id="node4" class="node">
<title>EventsPage</title>
<polygon fill="#ffffb3" stroke="#000000" points="1326.8148,-122 1245.1852,-122 1245.1852,-86 1326.8148,-86 1326.8148,-122"/>
<text text-anchor="middle" x="1286" y="-99.8" font-family="Times,serif" font-size="14.00" fill="#000000">EventsPage</text>
</g>
<!-- EventsPage&#45;&gt;AppModule -->
<g id="edge4" class="edge">
<title>EventsPage&#45;&gt;AppModule</title>
<path fill="none" stroke="#000000" d="M1286,-122.0225C1286,-139.3734 1286,-163 1286,-163 1286,-163 1090.9002,-163 1090.9002,-163"/>
<polygon fill="#000000" stroke="#000000" points="1090.9002,-159.5001 1080.9002,-163 1090.9001,-166.5001 1090.9002,-159.5001"/>
</g>
<!-- HomePage -->
<g id="node5" class="node">
<title>HomePage</title>
<polygon fill="#ffffb3" stroke="#000000" points="1227.9248,-122 1150.0752,-122 1150.0752,-86 1227.9248,-86 1227.9248,-122"/>
<text text-anchor="middle" x="1189" y="-99.8" font-family="Times,serif" font-size="14.00" fill="#000000">HomePage</text>
</g>
<!-- HomePage&#45;&gt;AppModule -->
<g id="edge5" class="edge">
<title>HomePage&#45;&gt;AppModule</title>
<path fill="none" stroke="#000000" d="M1189,-122.2396C1189,-137.5706 1189,-157 1189,-157 1189,-157 1090.7834,-157 1090.7834,-157"/>
<polygon fill="#000000" stroke="#000000" points="1090.7834,-153.5001 1080.7834,-157 1090.7833,-160.5001 1090.7834,-153.5001"/>
</g>
<!-- LoginModal -->
<g id="node6" class="node">
<title>LoginModal</title>
<polygon fill="#ffffb3" stroke="#000000" points="1131.993,-122 1046.007,-122 1046.007,-86 1131.993,-86 1131.993,-122"/>
<text text-anchor="middle" x="1089" y="-99.8" font-family="Times,serif" font-size="14.00" fill="#000000">LoginModal</text>
</g>
<!-- LoginModal&#45;&gt;AppModule -->
<g id="edge6" class="edge">
<title>LoginModal&#45;&gt;AppModule</title>
<path fill="none" stroke="#000000" d="M1063.4159,-122.1061C1063.4159,-122.1061 1063.4159,-140.991 1063.4159,-140.991"/>
<polygon fill="#000000" stroke="#000000" points="1059.9159,-140.9909 1063.4159,-150.991 1066.9159,-140.991 1059.9159,-140.9909"/>
</g>
<!-- LoginPage -->
<g id="node7" class="node">
<title>LoginPage</title>
<polygon fill="#ffffb3" stroke="#000000" points="1028.1558,-122 951.8442,-122 951.8442,-86 1028.1558,-86 1028.1558,-122"/>
<text text-anchor="middle" x="990" y="-99.8" font-family="Times,serif" font-size="14.00" fill="#000000">LoginPage</text>
</g>
<!-- LoginPage&#45;&gt;AppModule -->
<g id="edge7" class="edge">
<title>LoginPage&#45;&gt;AppModule</title>
<path fill="none" stroke="#000000" d="M1012.7497,-122.1061C1012.7497,-122.1061 1012.7497,-140.991 1012.7497,-140.991"/>
<polygon fill="#000000" stroke="#000000" points="1009.2497,-140.9909 1012.7497,-150.991 1016.2497,-140.991 1009.2497,-140.9909"/>
</g>
<!-- MyApp -->
<g id="node8" class="node">
<title>MyApp</title>
<polygon fill="#ffffb3" stroke="#000000" points="933.5529,-122 874.4471,-122 874.4471,-86 933.5529,-86 933.5529,-122"/>
<text text-anchor="middle" x="904" y="-99.8" font-family="Times,serif" font-size="14.00" fill="#000000">MyApp</text>
</g>
<!-- MyApp&#45;&gt;AppModule -->
<g id="edge8" class="edge">
<title>MyApp&#45;&gt;AppModule</title>
<path fill="none" stroke="#000000" d="M904,-122.2396C904,-137.5706 904,-157 904,-157 904,-157 987.0252,-157 987.0252,-157"/>
<polygon fill="#000000" stroke="#000000" points="987.0252,-160.5001 997.0252,-157 987.0251,-153.5001 987.0252,-160.5001"/>
</g>
<!-- IonicApp  -->
<g id="node10" class="node">
<title>IonicApp </title>
<polygon fill="#80b1d3" stroke="#000000" points="1075.3734,-252 1002.6266,-252 1002.6266,-216 1075.3734,-216 1075.3734,-252"/>
<text text-anchor="middle" x="1039" y="-229.8" font-family="Times,serif" font-size="14.00" fill="#000000">IonicApp </text>
</g>
<!-- AppModule&#45;&gt;IonicApp  -->
<g id="edge9" class="edge">
<title>AppModule&#45;&gt;IonicApp </title>
<path fill="none" stroke="#000000" stroke-dasharray="1,5" d="M1039,-187.1061C1039,-187.1061 1039,-205.991 1039,-205.991"/>
<polygon fill="#000000" stroke="#000000" points="1035.5001,-205.9909 1039,-215.991 1042.5001,-205.991 1035.5001,-205.9909"/>
</g>
<!-- FirebaseAuthProvider -->
<g id="node11" class="node">
<title>FirebaseAuthProvider</title>
<ellipse fill="#fdb462" stroke="#000000" cx="754" cy="-104" rx="96.1266" ry="18"/>
<text text-anchor="middle" x="754" y="-99.8" font-family="Times,serif" font-size="14.00" fill="#000000">FirebaseAuthProvider</text>
</g>
<!-- FirebaseAuthProvider&#45;&gt;AppModule -->
<g id="edge10" class="edge">
<title>FirebaseAuthProvider&#45;&gt;AppModule</title>
<path fill="none" stroke="#000000" d="M754,-122.0225C754,-139.3734 754,-163 754,-163 754,-163 987.2533,-163 987.2533,-163"/>
<polygon fill="#000000" stroke="#000000" points="987.2534,-166.5001 997.2533,-163 987.2533,-159.5001 987.2534,-166.5001"/>
</g>
<!-- FirebaseConfigProvider -->
<g id="node12" class="node">
<title>FirebaseConfigProvider</title>
<ellipse fill="#fdb462" stroke="#000000" cx="536" cy="-104" rx="103.6508" ry="18"/>
<text text-anchor="middle" x="536" y="-99.8" font-family="Times,serif" font-size="14.00" fill="#000000">FirebaseConfigProvider</text>
</g>
<!-- FirebaseConfigProvider&#45;&gt;AppModule -->
<g id="edge11" class="edge">
<title>FirebaseConfigProvider&#45;&gt;AppModule</title>
<path fill="none" stroke="#000000" d="M536,-122.1061C536,-141.3391 536,-169 536,-169 536,-169 986.9797,-169 986.9797,-169"/>
<polygon fill="#000000" stroke="#000000" points="986.9797,-172.5001 996.9797,-169 986.9796,-165.5001 986.9797,-172.5001"/>
</g>
<!-- FirebaseDatabaseProvider -->
<g id="node13" class="node">
<title>FirebaseDatabaseProvider</title>
<ellipse fill="#fdb462" stroke="#000000" cx="302" cy="-104" rx="112.2743" ry="18"/>
<text text-anchor="middle" x="302" y="-99.8" font-family="Times,serif" font-size="14.00" fill="#000000">FirebaseDatabaseProvider</text>
</g>
<!-- FirebaseDatabaseProvider&#45;&gt;AppModule -->
<g id="edge12" class="edge">
<title>FirebaseDatabaseProvider&#45;&gt;AppModule</title>
<path fill="none" stroke="#000000" d="M302,-122.2843C302,-143.3211 302,-175 302,-175 302,-175 987.264,-175 987.264,-175"/>
<polygon fill="#000000" stroke="#000000" points="987.2641,-178.5001 997.264,-175 987.264,-171.5001 987.2641,-178.5001"/>
</g>
<!-- GeofireProvider -->
<g id="node14" class="node">
<title>GeofireProvider</title>
<ellipse fill="#fdb462" stroke="#000000" cx="98" cy="-104" rx="73.5541" ry="18"/>
<text text-anchor="middle" x="98" y="-99.8" font-family="Times,serif" font-size="14.00" fill="#000000">GeofireProvider</text>
</g>
<!-- GeofireProvider&#45;&gt;AppModule -->
<g id="edge13" class="edge">
<title>GeofireProvider&#45;&gt;AppModule</title>
<path fill="none" stroke="#000000" d="M98,-122.2479C98,-145.0179 98,-181 98,-181 98,-181 987.0462,-181 987.0462,-181"/>
<polygon fill="#000000" stroke="#000000" points="987.0462,-184.5001 997.0462,-181 987.0461,-177.5001 987.0462,-184.5001"/>
</g>
</g>
</svg>
