<?xml version="1.0" encoding="UTF-8" standalone="no"?>
<!DOCTYPE svg PUBLIC "-//W3C//DTD SVG 1.1//EN"
 "http://www.w3.org/Graphics/SVG/1.1/DTD/svg11.dtd">
<!-- Generated by graphviz version 2.40.1 (20161225.0304)
 -->
<!-- Title: dependencies Pages: 1 -->
<svg width="504pt" height="284pt"
 viewBox="0.00 0.00 504.00 284.00" xmlns="http://www.w3.org/2000/svg" xmlns:xlink="http://www.w3.org/1999/xlink">
<g id="graph0" class="graph" transform="scale(1 1) rotate(0) translate(4 280)">
<title>dependencies</title>
<polygon fill="#ffffff" stroke="transparent" points="-4,4 -4,-280 500,-280 500,4 -4,4"/>
<text text-anchor="start" x="227.0091" y="-42.4" font-family="sans-serif" font-weight="bold" font-size="14.00" fill="#000000">Legend</text>
<polygon fill="#ffffb3" stroke="transparent" points="14,-10 14,-30 34,-30 34,-10 14,-10"/>
<text text-anchor="start" x="37.629" y="-15.4" font-family="sans-serif" font-size="14.00" fill="#000000"> &#160;Declarations</text>
<polygon fill="#8dd3c7" stroke="transparent" points="127,-10 127,-30 147,-30 147,-10 127,-10"/>
<text text-anchor="start" x="150.7251" y="-15.4" font-family="sans-serif" font-size="14.00" fill="#000000"> &#160;Module</text>
<polygon fill="#80b1d3" stroke="transparent" points="213,-10 213,-30 233,-30 233,-10 213,-10"/>
<text text-anchor="start" x="236.7812" y="-15.4" font-family="sans-serif" font-size="14.00" fill="#000000"> &#160;Bootstrap</text>
<polygon fill="#fdb462" stroke="transparent" points="310,-10 310,-30 330,-30 330,-10 310,-10"/>
<text text-anchor="start" x="333.6732" y="-15.4" font-family="sans-serif" font-size="14.00" fill="#000000"> &#160;Providers</text>
<polygon fill="#fb8072" stroke="transparent" points="406,-10 406,-30 426,-30 426,-10 406,-10"/>
<text text-anchor="start" x="429.7258" y="-15.4" font-family="sans-serif" font-size="14.00" fill="#000000"> &#160;Exports</text>
<g id="clust1" class="cluster">
<title>cluster_ComponentsModule</title>
<polygon fill="none" stroke="#000000" stroke-dasharray="1,5" points="83.5,-70 83.5,-268 412.5,-268 412.5,-70 83.5,-70"/>
</g>
<g id="clust2" class="cluster">
<title>cluster_ComponentsModule_declarations</title>
<polygon fill="none" stroke="#000000" points="95.5,-78 95.5,-130 401.5,-130 401.5,-78 95.5,-78"/>
</g>
<g id="clust6" class="cluster">
<title>cluster_ComponentsModule_exports</title>
<polygon fill="none" stroke="#000000" points="91.5,-208 91.5,-260 404.5,-260 404.5,-208 91.5,-208"/>
</g>
<!-- CalendarComponent -->
<g id="node1" class="node">
<title>CalendarComponent</title>
<polygon fill="#ffffb3" stroke="#000000" points="393.3641,-122 261.6359,-122 261.6359,-86 393.3641,-86 393.3641,-122"/>
<text text-anchor="middle" x="327.5" y="-99.8" font-family="Times,serif" font-size="14.00" fill="#000000">CalendarComponent</text>
</g>
<!-- ComponentsModule -->
<g id="node3" class="node">
<title>ComponentsModule</title>
<polygon fill="#8dd3c7" stroke="#000000" points="239.8272,-187 236.8272,-191 215.8272,-191 212.8272,-187 109.1728,-187 109.1728,-151 239.8272,-151 239.8272,-187"/>
<text text-anchor="middle" x="174.5" y="-164.8" font-family="Times,serif" font-size="14.00" fill="#000000">ComponentsModule</text>
</g>
<!-- CalendarComponent&#45;&gt;ComponentsModule -->
<g id="edge1" class="edge">
<title>CalendarComponent&#45;&gt;ComponentsModule</title>
<path fill="none" stroke="#000000" d="M349.4773,-122.0225C349.4773,-139.3734 349.4773,-163 349.4773,-163 349.4773,-163 250.1529,-163 250.1529,-163"/>
<polygon fill="#000000" stroke="#000000" points="250.153,-159.5001 240.1529,-163 250.1529,-166.5001 250.153,-159.5001"/>
</g>
<!-- EventItemComponent -->
<g id="node2" class="node">
<title>EventItemComponent</title>
<polygon fill="#ffffb3" stroke="#000000" points="243.147,-122 103.853,-122 103.853,-86 243.147,-86 243.147,-122"/>
<text text-anchor="middle" x="173.5" y="-99.8" font-family="Times,serif" font-size="14.00" fill="#000000">EventItemComponent</text>
</g>
<!-- EventItemComponent&#45;&gt;ComponentsModule -->
<g id="edge2" class="edge">
<title>EventItemComponent&#45;&gt;ComponentsModule</title>
<path fill="none" stroke="#000000" d="M174.5,-122.1061C174.5,-122.1061 174.5,-140.991 174.5,-140.991"/>
<polygon fill="#000000" stroke="#000000" points="171.0001,-140.9909 174.5,-150.991 178.0001,-140.991 171.0001,-140.9909"/>
</g>
<!-- CalendarComponent  -->
<g id="node4" class="node">
<title>CalendarComponent </title>
<polygon fill="#fb8072" stroke="#000000" points="396.3645,-252 260.6355,-252 260.6355,-216 396.3645,-216 396.3645,-252"/>
<text text-anchor="middle" x="328.5" y="-229.8" font-family="Times,serif" font-size="14.00" fill="#000000">CalendarComponent </text>
</g>
<!-- ComponentsModule&#45;&gt;CalendarComponent  -->
<g id="edge3" class="edge">
<title>ComponentsModule&#45;&gt;CalendarComponent </title>
<path fill="none" stroke="#000000" stroke-dasharray="5,2" d="M240.0113,-175C272.767,-175 305.5227,-175 305.5227,-175 305.5227,-175 305.5227,-205.9775 305.5227,-205.9775"/>
<polygon fill="#000000" stroke="#000000" points="302.0228,-205.9774 305.5227,-215.9775 309.0228,-205.9775 302.0228,-205.9774"/>
</g>
<!-- EventItemComponent  -->
<g id="node5" class="node">
<title>EventItemComponent </title>
<polygon fill="#fb8072" stroke="#000000" points="243.1467,-252 99.8533,-252 99.8533,-216 243.1467,-216 243.1467,-252"/>
<text text-anchor="middle" x="171.5" y="-229.8" font-family="Times,serif" font-size="14.00" fill="#000000">EventItemComponent </text>
</g>
<!-- ComponentsModule&#45;&gt;EventItemComponent  -->
<g id="edge4" class="edge">
<title>ComponentsModule&#45;&gt;EventItemComponent </title>
<path fill="none" stroke="#000000" stroke-dasharray="5,2" d="M174.5,-187.1061C174.5,-187.1061 174.5,-205.991 174.5,-205.991"/>
<polygon fill="#000000" stroke="#000000" points="171.0001,-205.9909 174.5,-215.991 178.0001,-205.991 171.0001,-205.9909"/>
</g>
</g>
</svg>
