<?xml version="1.0" encoding="UTF-8" standalone="no"?>
<!DOCTYPE svg PUBLIC "-//W3C//DTD SVG 1.1//EN"
 "http://www.w3.org/Graphics/SVG/1.1/DTD/svg11.dtd">
<!-- Generated by graphviz version 2.40.1 (20161225.0304)
 -->
<!-- Title: dependencies Pages: 1 -->
<svg width="504pt" height="284pt"
 viewBox="0.00 0.00 504.00 284.00" xmlns="http://www.w3.org/2000/svg" xmlns:xlink="http://www.w3.org/1999/xlink">
<g id="graph0" class="graph" transform="scale(1 1) rotate(0) translate(4 280)">
<title>dependencies</title>
<polygon fill="#ffffff" stroke="transparent" points="-4,4 -4,-280 500,-280 500,4 -4,4"/>
<text text-anchor="start" x="227.0091" y="-42.4" font-family="sans-serif" font-weight="bold" font-size="14.00" fill="#000000">Legend</text>
<polygon fill="#ffffb3" stroke="transparent" points="14,-10 14,-30 34,-30 34,-10 14,-10"/>
<text text-anchor="start" x="37.629" y="-15.4" font-family="sans-serif" font-size="14.00" fill="#000000"> &#160;Declarations</text>
<polygon fill="#8dd3c7" stroke="transparent" points="127,-10 127,-30 147,-30 147,-10 127,-10"/>
<text text-anchor="start" x="150.7251" y="-15.4" font-family="sans-serif" font-size="14.00" fill="#000000"> &#160;Module</text>
<polygon fill="#80b1d3" stroke="transparent" points="213,-10 213,-30 233,-30 233,-10 213,-10"/>
<text text-anchor="start" x="236.7812" y="-15.4" font-family="sans-serif" font-size="14.00" fill="#000000"> &#160;Bootstrap</text>
<polygon fill="#fdb462" stroke="transparent" points="310,-10 310,-30 330,-30 330,-10 310,-10"/>
<text text-anchor="start" x="333.6732" y="-15.4" font-family="sans-serif" font-size="14.00" fill="#000000"> &#160;Providers</text>
<polygon fill="#fb8072" stroke="transparent" points="406,-10 406,-30 426,-30 426,-10 406,-10"/>
<text text-anchor="start" x="429.7258" y="-15.4" font-family="sans-serif" font-size="14.00" fill="#000000"> &#160;Exports</text>
<g id="clust1" class="cluster">
<title>cluster_ComponentsModule</title>
<polygon fill="none" stroke="#000000" stroke-dasharray="1,5" points="19.5,-70 19.5,-268 476.5,-268 476.5,-70 19.5,-70"/>
</g>
<g id="clust2" class="cluster">
<title>cluster_ComponentsModule_declarations</title>
<polygon fill="none" stroke="#000000" points="33.5,-78 33.5,-130 463.5,-130 463.5,-78 33.5,-78"/>
</g>
<g id="clust7" class="cluster">
<title>cluster_ComponentsModule_exports</title>
<polygon fill="none" stroke="#000000" points="27.5,-208 27.5,-260 468.5,-260 468.5,-208 27.5,-208"/>
</g>
<!-- CalendarComponent -->
<g id="node1" class="node">
<title>CalendarComponent</title>
<polygon fill="#ffffb3" stroke="#000000" points="455.3641,-122 323.6359,-122 323.6359,-86 455.3641,-86 455.3641,-122"/>
<text text-anchor="middle" x="389.5" y="-99.8" font-family="Times,serif" font-size="14.00" fill="#000000">CalendarComponent</text>
</g>
<!-- ComponentsModule -->
<g id="node4" class="node">
<title>ComponentsModule</title>
<polygon fill="#8dd3c7" stroke="#000000" points="300.8272,-187 297.8272,-191 276.8272,-191 273.8272,-187 170.1728,-187 170.1728,-151 300.8272,-151 300.8272,-187"/>
<text text-anchor="middle" x="235.5" y="-164.8" font-family="Times,serif" font-size="14.00" fill="#000000">ComponentsModule</text>
</g>
<!-- CalendarComponent&#45;&gt;ComponentsModule -->
<g id="edge1" class="edge">
<title>CalendarComponent&#45;&gt;ComponentsModule</title>
<path fill="none" stroke="#000000" d="M411.894,-122.0225C411.894,-139.3734 411.894,-163 411.894,-163 411.894,-163 310.6815,-163 310.6815,-163"/>
<polygon fill="#000000" stroke="#000000" points="310.6815,-159.5001 300.6815,-163 310.6814,-166.5001 310.6815,-159.5001"/>
</g>
<!-- EventItemComponent -->
<g id="node2" class="node">
<title>EventItemComponent</title>
<polygon fill="#ffffb3" stroke="#000000" points="305.147,-122 165.853,-122 165.853,-86 305.147,-86 305.147,-122"/>
<text text-anchor="middle" x="235.5" y="-99.8" font-family="Times,serif" font-size="14.00" fill="#000000">EventItemComponent</text>
</g>
<!-- EventItemComponent&#45;&gt;ComponentsModule -->
<g id="edge2" class="edge">
<title>EventItemComponent&#45;&gt;ComponentsModule</title>
<path fill="none" stroke="#000000" d="M235.5,-122.1061C235.5,-122.1061 235.5,-140.991 235.5,-140.991"/>
<polygon fill="#000000" stroke="#000000" points="232.0001,-140.9909 235.5,-150.991 239.0001,-140.991 232.0001,-140.9909"/>
</g>
<!-- MapComponent -->
<g id="node3" class="node">
<title>MapComponent</title>
<polygon fill="#ffffb3" stroke="#000000" points="147.9916,-122 41.0084,-122 41.0084,-86 147.9916,-86 147.9916,-122"/>
<text text-anchor="middle" x="94.5" y="-99.8" font-family="Times,serif" font-size="14.00" fill="#000000">MapComponent</text>
</g>
<!-- MapComponent&#45;&gt;ComponentsModule -->
<g id="edge3" class="edge">
<title>MapComponent&#45;&gt;ComponentsModule</title>
<path fill="none" stroke="#000000" d="M110.8319,-122.0225C110.8319,-139.3734 110.8319,-163 110.8319,-163 110.8319,-163 160.245,-163 160.245,-163"/>
<polygon fill="#000000" stroke="#000000" points="160.245,-166.5001 170.245,-163 160.245,-159.5001 160.245,-166.5001"/>
</g>
<!-- CalendarComponent  -->
<g id="node5" class="node">
<title>CalendarComponent </title>
<polygon fill="#fb8072" stroke="#000000" points="460.3645,-252 324.6355,-252 324.6355,-216 460.3645,-216 460.3645,-252"/>
<text text-anchor="middle" x="392.5" y="-229.8" font-family="Times,serif" font-size="14.00" fill="#000000">CalendarComponent </text>
</g>
<!-- ComponentsModule&#45;&gt;CalendarComponent  -->
<g id="edge4" class="edge">
<title>ComponentsModule&#45;&gt;CalendarComponent </title>
<path fill="none" stroke="#000000" stroke-dasharray="5,2" d="M300.7604,-175C334.359,-175 368.356,-175 368.356,-175 368.356,-175 368.356,-205.9775 368.356,-205.9775"/>
<polygon fill="#000000" stroke="#000000" points="364.8561,-205.9774 368.356,-215.9775 371.8561,-205.9775 364.8561,-205.9774"/>
</g>
<!-- EventItemComponent  -->
<g id="node6" class="node">
<title>EventItemComponent </title>
<polygon fill="#fb8072" stroke="#000000" points="307.1467,-252 163.8533,-252 163.8533,-216 307.1467,-216 307.1467,-252"/>
<text text-anchor="middle" x="235.5" y="-229.8" font-family="Times,serif" font-size="14.00" fill="#000000">EventItemComponent </text>
</g>
<!-- ComponentsModule&#45;&gt;EventItemComponent  -->
<g id="edge5" class="edge">
<title>ComponentsModule&#45;&gt;EventItemComponent </title>
<path fill="none" stroke="#000000" stroke-dasharray="5,2" d="M235.5,-187.1061C235.5,-187.1061 235.5,-205.991 235.5,-205.991"/>
<polygon fill="#000000" stroke="#000000" points="232.0001,-205.9909 235.5,-215.991 239.0001,-205.991 232.0001,-205.9909"/>
</g>
<!-- MapComponent  -->
<g id="node7" class="node">
<title>MapComponent </title>
<polygon fill="#fb8072" stroke="#000000" points="145.9927,-252 35.0073,-252 35.0073,-216 145.9927,-216 145.9927,-252"/>
<text text-anchor="middle" x="90.5" y="-229.8" font-family="Times,serif" font-size="14.00" fill="#000000">MapComponent </text>
</g>
<!-- ComponentsModule&#45;&gt;MapComponent  -->
<g id="edge6" class="edge">
<title>ComponentsModule&#45;&gt;MapComponent </title>
<path fill="none" stroke="#000000" stroke-dasharray="5,2" d="M170.1315,-175C126.0608,-175 75.9181,-175 75.9181,-175 75.9181,-175 75.9181,-205.9775 75.9181,-205.9775"/>
<polygon fill="#000000" stroke="#000000" points="72.4182,-205.9774 75.9181,-215.9775 79.4182,-205.9775 72.4182,-205.9774"/>
</g>
</g>
</svg>
